<?xml version="1.0" encoding="UTF-8"?>
<svg width="3619px" height="3619px" viewBox="0 0 3619 3619" version="1.1" xmlns="http://www.w3.org/2000/svg" xmlns:xlink="http://www.w3.org/1999/xlink">
    <!-- Generator: Sketch 56.3 (81716) - https://sketch.com -->
    <title>react-icon</title>
    <desc>Created with Sketch.</desc>
    <g id="Page-1" stroke="none" stroke-width="1" fill="none" fill-rule="evenodd">
        <g id="react-icon">
            <polygon id="Path" fill="#222222" fill-rule="nonzero" points="0 0 3618.6 0 3618.6 3618.6 0 3618.6"></polygon>
            <circle id="Oval" fill="#00D8FF" fill-rule="nonzero" cx="1806.5" cy="1807.1" r="302.6"></circle>
            <path d="M1806.5,1191.9 C2212.7,1191.9 2590.1,1250.2 2874.6,1348.1 C3217.4,1466.1 3428.2,1645 3428.2,1807 C3428.2,1975.8 3204.8,2165.9 2836.7,2287.8 C2558.4,2380 2192.1,2428.2 1806.5,2428.2 C1411.1,2428.2 1036.8,2383 755.3,2286.8 C399.2,2165.1 184.7,1972.6 184.7,1807 C184.7,1646.3 386,1468.8 724,1351 C1009.6,1251.5 1396.3,1191.9 1806.5,1191.9 L1806.5,1191.9 Z" id="Path" stroke="#00D8FF" stroke-width="144.7456"></path>
            <path d="M1271,1501.3 C1473.9,1149.4 1713,851.6 1940,654.1 C2213.5,416.1 2473.8,322.9 2614.1,403.8 C2760.3,488.1 2813.4,776.6 2735.1,1156.5 C2675.9,1443.7 2534.7,1785 2342,2119.1 C2144.5,2461.6 1918.3,2763.3 1694.4,2959.1 C1411.1,3206.8 1137.1,3296.4 993.7,3213.7 C854.5,3133.4 801.3,2870.4 868,2518.7 C924.4,2221.3 1066,1856.6 1271,1501.3 Z" id="Path" stroke="#00D8FF" stroke-width="144.7456"></path>
            <path d="M1271.5,2119.8 C1068,1768.2 929.4,1412.4 871.6,1117.1 C802,761.3 851.2,489.2 991.4,408.1 C1137.5,323.5 1413.9,421.6 1703.9,679.1 C1923.2,873.8 2148.3,1166.6 2341.5,1500.4 C2539.6,1842.6 2688.1,2189.2 2745.8,2480.9 C2818.9,2850.1 2759.7,3132.2 2616.4,3215.1 C2477.3,3295.6 2222.9,3210.4 1951.5,2976.9 C1722.3,2779.6 1477,2474.8 1271.5,2119.8 Z" id="Path" stroke="#00D8FF" stroke-width="144.7456"></path>
        </g>
    </g>
</svg>