<?xml version="1.0" encoding="UTF-8"?>
<svg width="1000px" height="421px" viewBox="0 0 1000 421" version="1.1" xmlns="http://www.w3.org/2000/svg" xmlns:xlink="http://www.w3.org/1999/xlink">
    <!-- Generator: Sketch 56.3 (81716) - https://sketch.com -->
    <title>path815</title>
    <desc>Created with Sketch.</desc>
    <g id="Page-1" stroke="none" stroke-width="1" fill="none" fill-rule="evenodd">
        <g id="Zara_Logo" fill="#FFFFFF">
            <path d="M948.70844,408.17918 L800.55135,0.26917 L800.44926,0 L797.52546,0 L767.01598,83.824495 L711.47332,236.42759 L711.34335,236.307 C692.09276,219.3212 664.93403,208.70275 630.73038,204.74867 L620.29756,203.67198 L630.64683,202.34467 C687.05271,192.20887 724.96911,156.58509 724.96911,113.66575 C724.96911,54.809465 669.61209,13.72794 590.31714,13.72794 L425.33207,13.72794 L425.33207,16.70742 L473.27288,16.70742 L473.27288,320.82757 L356.8412,0.26917 L356.73911,0 L353.81531,0 L323.30583,83.824495 L205.63039,407.13033 L204.90639,407.21383 C202.89502,407.46166 200.90591,407.65936 198.93815,407.80787 C195.97724,408.03992 193.0349,408.17915 190.08326,408.17915 L71.182603,408.17915 L297.19596,16.70733 L298.87596,13.76498 L22.452825,13.76498 L22.452825,134.86546 L25.385894,134.86546 C25.905678,75.879222 60.25785,16.70735 136.15564,16.70735 L227.72121,16.70735 L0,411.11225 L306.78411,411.11225 L306.78411,295.08897 L303.85104,295.08897 C303.45193,346.5012 274.30688,395.33308 210.93033,406.35993 L208.91616,406.70335 L257.18185,274.0377 L392.39074,274.0377 L441.11123,408.17918 L393.04974,408.17918 L393.04974,411.11225 L581.68504,411.11225 L581.68504,408.17918 L533.41936,408.17918 L533.41936,205.83458 L589.11052,205.83458 C645.78558,205.83458 678.29066,231.15549 678.29066,275.28147 L678.29066,311.17443 C678.29066,315.12851 678.55984,320.9111 678.85686,325.74696 L678.85686,325.92331 L648.92285,408.16061 L609.81836,408.16061 L609.81836,411.09369 L690.76548,411.09369 L690.76548,408.16061 L652.07868,408.16061 L679.33951,333.27455 C679.39521,333.99853 679.42301,334.43478 679.42301,334.43478 L680.17484,341.18269 L680.89883,345.64726 C685.44694,373.26082 696.00971,393.56025 712.28081,405.97938 L714.61984,407.67796 C726.98328,416.27296 742.34475,420.62615 760.30516,420.62615 C784.09457,420.62615 799.95728,414.69504 813.05398,400.73513 L811.33685,399.12008 C799.27042,410.25832 789.14391,414.7693 776.4556,414.7693 C754.83814,414.7693 743.52356,388.54804 743.52356,362.68878 L743.52356,312.39964 C743.63861,299.9211 741.68482,287.51033 737.74095,275.67131 L737.2026,274.11196 L737.2026,274.05626 L836.10085,274.05626 L884.82134,408.19774 L836.75986,408.19774 L836.75986,411.13081 L1000,411.13081 L1000,408.19774 L948.70844,408.17918 Z M258.25854,271.10463 L324.86519,88.112716 L391.32332,271.10463 L258.25854,271.10463 Z M533.4472,202.89223 L533.4472,16.70735 L575.95812,16.70735 C632.74456,16.70735 662.72498,50.465483 662.72498,114.29685 C662.72498,182.1844 645.5164,202.89223 589.11052,202.89223 L533.4472,202.89223 Z M736.05169,271.10463 L735.76396,270.38065 C731.369,259.67681 724.971,249.91043 716.91249,241.60687 L714.12793,238.82232 L713.83091,238.54386 L768.53821,88.112716 L834.99634,271.10463 L736.05169,271.10463 Z" id="path815"></path>
        </g>
    </g>
</svg>